# Blender v2.79 (sub 0) OBJ File: 'cap.blend'
# www.blender.org
mtllib cap.mtl
v -3.600000 97.034569 0.000028
v -6.000000 44.624329 0.000011
v -3.530827 97.034569 0.702353
v -5.884712 44.624329 1.170552
v -3.325967 97.034569 1.377688
v -5.543277 44.624329 2.296111
v -2.993291 97.034569 2.000081
v -4.988818 44.624329 3.333432
v -2.545584 97.034569 2.545612
v -4.242640 44.624329 4.242651
v -2.000053 97.034569 2.993319
v -3.333422 44.624329 4.988829
v -1.377661 97.034569 3.325994
v -2.296101 44.624329 5.543288
v -0.702325 97.034569 3.530855
v -1.170542 44.624325 5.884722
v -0.000000 97.034569 3.600028
v -0.000001 44.624325 6.000011
v 0.702325 97.034569 3.530855
v 1.170541 44.624325 5.884723
v 1.377660 97.034569 3.325994
v 2.296100 44.624329 5.543289
v 2.000053 97.034569 2.993319
v 3.333421 44.624329 4.988829
v 2.545584 97.034569 2.545612
v 4.242640 44.624329 4.242651
v 2.993291 97.034569 2.000081
v 4.988818 44.624329 3.333433
v 3.325967 97.034569 1.377688
v 5.543278 44.624329 2.296111
v 3.530828 97.034569 0.702352
v 5.884712 44.624329 1.170551
v 3.600000 97.034569 0.000027
v 6.000000 44.624329 0.000009
v 3.530827 97.034569 -0.702299
v 5.884711 44.624329 -1.170533
v 3.325966 97.034569 -1.377634
v 5.543276 44.624329 -2.296093
v 2.993290 97.034569 -2.000027
v 4.988816 44.624329 -3.333413
v 2.545583 97.034569 -2.545558
v 4.242639 44.624329 -4.242633
v 2.000051 97.034569 -2.993264
v 3.333419 44.624329 -4.988810
v 1.377658 97.034569 -3.325940
v 2.296097 44.624329 -5.543269
v 0.702322 97.034569 -3.530800
v 1.170537 44.624332 -5.884702
v -0.000003 97.034569 -3.599972
v -0.000005 44.624332 -5.999990
v -0.702329 97.034569 -3.530799
v -1.170548 44.624332 -5.884700
v -1.377664 97.034569 -3.325937
v -2.296107 44.624329 -5.543264
v -2.000057 97.034569 -2.993261
v -3.333427 44.624329 -4.988803
v -2.545588 97.034569 -2.545553
v -4.242646 44.624329 -4.242625
v -2.993293 97.034569 -2.000021
v -4.988822 44.624329 -3.333404
v -3.325969 97.034569 -1.377628
v -5.543281 44.624329 -2.296082
v -3.530828 97.034569 -0.702292
v -5.884714 44.624329 -1.170523
v -5.543281 77.034599 -2.296072
v 5.543276 77.034599 -2.296082
v -2.296101 77.034599 5.543299
v -1.170548 77.034599 -5.884689
v 4.988818 77.034599 3.333443
v -5.884712 77.034599 1.170563
v 4.242639 77.034599 -4.242622
v -0.000001 77.034599 6.000022
v -3.333427 77.034599 -4.988792
v 5.884712 77.034599 1.170562
v -4.988818 77.034599 3.333443
v 2.296097 77.034599 -5.543258
v 2.296100 77.034599 5.543300
v -4.988822 77.034599 -3.333394
v 5.884711 77.034599 -1.170523
v -3.333422 77.034599 4.988840
v -0.000005 77.034599 -5.999979
v 4.242640 77.034599 4.242662
v -5.884714 77.034599 -1.170512
v 4.988816 77.034599 -3.333403
v -1.170542 77.034599 5.884733
v -2.296107 77.034599 -5.543253
v 5.543278 77.034599 2.296122
v -5.543277 77.034599 2.296122
v 3.333419 77.034599 -4.988799
v 1.170541 77.034599 5.884734
v -4.242646 77.034599 -4.242614
v 6.000000 77.034599 0.000020
v -4.242640 77.034599 4.242662
v 1.170537 77.034599 -5.884691
v 3.333421 77.034599 4.988840
v -6.000000 77.034599 0.000021
v -2.066496 87.034599 -4.988923
v 4.988951 87.034599 2.066514
v -4.988950 87.034599 2.066515
v 3.000077 87.034599 -4.489914
v 1.053487 87.034599 5.296266
v -3.818381 87.034599 -3.818347
v 5.400000 87.034599 0.000023
v -3.818377 87.034599 3.818402
v 1.053483 87.034599 -5.296217
v 3.000079 87.034599 4.489962
v -4.988953 87.034599 -2.066459
v 4.988949 87.034599 -2.066468
v -2.066491 87.034599 4.988974
v -1.053493 87.034599 -5.296215
v 4.489936 87.034599 3.000104
v -5.296241 87.034599 1.053512
v -5.400000 87.034599 0.000025
v -0.000001 87.034599 5.400025
v 3.818375 87.034599 -3.818355
v -3.000085 87.034599 -4.489908
v 5.296241 87.034599 1.053512
v -4.489936 87.034599 3.000104
v 2.066487 87.034599 -4.988927
v 2.066490 87.034599 4.988975
v -4.489941 87.034599 -3.000049
v 5.296240 87.034599 -1.053465
v -3.000080 87.034599 4.489961
v -0.000005 87.034599 -5.399976
v 3.818377 87.034599 3.818402
v -5.296242 87.034599 -1.053455
v 4.489935 87.034599 -3.000057
v -1.053488 87.034599 5.296266
v 2.265402 99.163246 -1.999971
v -2.949051 99.163246 -2.799972
v -2.949052 99.163246 2.800029
v 2.265402 99.163246 2.000029
v 2.265402 97.034569 -1.999972
v -3.495971 97.034569 -2.799973
v -3.495971 97.034569 2.800028
v 2.265402 97.034569 2.000028
v -8.797766 94.710159 -2.799973
v -8.797768 94.710159 2.800027
v -6.427981 92.034569 -2.799974
v -6.427982 92.034569 2.800026
v -12.703926 77.034599 -3.499979
v -12.703926 77.034599 3.500021
v -7.703927 77.034599 -3.499979
v -7.703927 77.034599 3.500021
v -10.242788 39.094841 -1.799992
v -10.242788 39.094841 1.800008
v -7.703927 39.094841 -1.799991
v -7.703927 39.094841 1.800009
vn 0.6106 -0.5904 -0.5279
vn 0.3100 -0.4517 -0.8365
vn -0.1875 0.7168 -0.6716
vn 0.6159 0.5805 -0.5326
vn -0.1875 0.7168 0.6716
vn -0.6496 0.4234 -0.6314
vn -0.6496 0.4234 0.6314
vn 0.3100 -0.4517 0.8365
vn 0.6106 -0.5904 0.5279
vn 0.6159 0.5805 0.5326
vn -0.7230 0.0528 -0.6887
vn -0.7230 0.0528 0.6887
vn 0.6319 -0.1763 0.7547
vn 0.6319 -0.1763 -0.7547
vn -0.5587 -0.6060 -0.5662
vn -0.5587 -0.6060 0.5662
vn 0.6893 -0.0298 0.7239
vn 0.6893 -0.0298 -0.7239
vn 0.5797 -0.5889 -0.5631
vn 0.5797 -0.5889 0.5631
vn -0.0000 -1.0000 -0.0000
vn -0.9995 0.0299 0.0000
vn -0.7279 -0.6857 0.0000
vn -0.7139 -0.6857 0.1420
vn -0.9803 0.0299 0.1950
vn -0.6725 -0.6857 0.2785
vn -0.9235 0.0299 0.3825
vn -0.6052 -0.6857 0.4044
vn -0.8311 0.0299 0.5553
vn -0.5147 -0.6857 0.5147
vn -0.7068 0.0299 0.7068
vn -0.4044 -0.6857 0.6052
vn -0.5553 0.0299 0.8311
vn -0.2785 -0.6857 0.6725
vn -0.3825 0.0299 0.9235
vn -0.1420 -0.6857 0.7139
vn -0.1950 0.0299 0.9803
vn 0.0000 -0.6857 0.7279
vn 0.0000 0.0299 0.9995
vn 0.1420 -0.6857 0.7139
vn 0.1950 0.0299 0.9803
vn 0.2785 -0.6857 0.6725
vn 0.3825 0.0299 0.9235
vn 0.4044 -0.6857 0.6052
vn 0.5553 0.0299 0.8311
vn 0.5147 -0.6857 0.5147
vn 0.7068 0.0299 0.7068
vn 0.6052 -0.6857 0.4044
vn 0.8311 0.0299 0.5553
vn 0.6725 -0.6857 0.2785
vn 0.9235 0.0299 0.3825
vn 0.7139 -0.6857 0.1420
vn 0.9803 0.0299 0.1950
vn 0.7279 -0.6857 0.0000
vn 0.9995 0.0299 0.0000
vn 0.6638 0.7479 0.0000
vn 0.9930 0.1183 0.0000
vn 0.9739 0.1183 -0.1937
vn 0.6511 0.7479 -0.1295
vn 0.9174 0.1183 -0.3800
vn 0.6133 0.7479 -0.2540
vn 0.8256 0.1183 -0.5517
vn 0.5520 0.7479 -0.3688
vn 0.7021 0.1183 -0.7021
vn 0.4694 0.7479 -0.4694
vn 0.5517 0.1183 -0.8256
vn 0.3688 0.7479 -0.5520
vn 0.3800 0.1183 -0.9174
vn 0.2540 0.7479 -0.6133
vn 0.1937 0.1183 -0.9739
vn 0.1295 0.7479 -0.6511
vn 0.0000 0.1183 -0.9930
vn 0.0000 0.7479 -0.6638
vn -0.1937 0.1183 -0.9739
vn -0.1295 0.7479 -0.6511
vn -0.3800 0.1183 -0.9174
vn -0.2540 0.7479 -0.6133
vn -0.5517 0.1183 -0.8256
vn -0.3688 0.7479 -0.5520
vn -0.7021 0.1183 -0.7021
vn -0.4694 0.7479 -0.4694
vn -0.8256 0.1183 -0.5517
vn -0.5520 0.7479 -0.3688
vn -0.9174 0.1183 -0.3800
vn -0.6133 0.7479 -0.2540
vn -0.6511 0.7479 -0.1295
vn -0.9739 0.1183 -0.1937
vn -0.9930 0.1183 0.0000
vn -0.6638 0.7479 0.0000
vn -0.6511 0.7479 0.1295
vn -0.6133 0.7479 0.2540
vn -0.5520 0.7479 0.3688
vn -0.4694 0.7479 0.4694
vn -0.3688 0.7479 0.5520
vn -0.2540 0.7479 0.6133
vn -0.1295 0.7479 0.6511
vn 0.0000 0.7479 0.6638
vn 0.1295 0.7479 0.6511
vn 0.2540 0.7479 0.6133
vn 0.3688 0.7479 0.5520
vn 0.4694 0.7479 0.4694
vn 0.5520 0.7479 0.3688
vn 0.6133 0.7479 0.2540
vn 0.6511 0.7479 0.1295
vn -0.9739 0.1183 0.1937
vn -0.3800 0.1183 0.9174
vn -0.1937 0.1183 0.9739
vn 0.7021 0.1183 0.7021
vn 0.8256 0.1183 0.5517
vn 0.9235 0.0299 -0.3825
vn 0.6725 -0.6857 -0.2785
vn 0.6052 -0.6857 -0.4044
vn 0.8311 0.0299 -0.5553
vn 0.0000 0.0299 -0.9995
vn 0.0000 -0.6857 -0.7279
vn -0.1420 -0.6857 -0.7139
vn -0.1950 0.0299 -0.9803
vn -0.5517 0.1183 0.8256
vn 0.5517 0.1183 0.8256
vn 0.9803 0.0299 -0.1950
vn 0.7139 -0.6857 -0.1420
vn 0.1950 0.0299 -0.9803
vn 0.1420 -0.6857 -0.7139
vn -0.8311 0.0299 -0.5553
vn -0.6052 -0.6857 -0.4044
vn -0.6725 -0.6857 -0.2785
vn -0.9235 0.0299 -0.3825
vn -0.7021 0.1183 0.7021
vn 0.3800 0.1183 0.9174
vn 0.3825 0.0299 -0.9235
vn 0.2785 -0.6857 -0.6725
vn -0.7068 0.0299 -0.7068
vn -0.5147 -0.6857 -0.5147
vn -0.8256 0.1183 0.5517
vn 0.1937 0.1183 0.9739
vn 0.9739 0.1183 0.1937
vn 0.5553 0.0299 -0.8311
vn 0.4044 -0.6857 -0.6052
vn -0.5553 0.0299 -0.8311
vn -0.4044 -0.6857 -0.6052
vn -0.9174 0.1183 0.3800
vn 0.0000 0.1183 0.9930
vn 0.9174 0.1183 0.3800
vn 0.7068 0.0299 -0.7068
vn 0.5147 -0.6857 -0.5147
vn -0.3825 0.0299 -0.9235
vn -0.2785 -0.6857 -0.6725
vn -0.7139 -0.6857 -0.1420
vn -0.9803 0.0299 -0.1950
usemtl black
s 1
f 133//1 134//2 130//3 129//4
f 131//5 130//3 137//6 138//7
f 135//8 136//9 132//10 131//5
f 136//9 133//1 129//4 132//10
f 129//4 130//3 131//5 132//10
f 136//9 135//8 134//2 133//1
f 138//7 137//6 141//11 142//12
f 135//8 131//5 138//7 140//13
f 134//2 135//8 140//13 139//14
f 130//3 134//2 139//14 137//6
f 142//12 141//11 145//15 146//16
f 140//13 138//7 142//12 144//17
f 139//14 140//13 144//17 143//18
f 137//6 139//14 143//18 141//11
f 147//19 148//20 146//16 145//15
f 144//17 142//12 146//16 148//20
f 143//18 144//17 148//20 147//19
f 141//11 143//18 147//19 145//15
usemtl glass
s off
f 4//21 2//21 64//21 62//21 60//21 58//21 56//21 54//21 52//21 50//21 48//21 46//21 44//21 42//21 40//21 38//21 36//21 34//21 32//21 30//21 28//21 26//21 24//21 22//21 20//21 18//21 16//21 14//21 12//21 10//21 8//21 6//21
s 1
f 96//22 2//23 4//24 70//25
f 70//25 4//24 6//26 88//27
f 88//27 6//26 8//28 75//29
f 75//29 8//28 10//30 93//31
f 93//31 10//30 12//32 80//33
f 80//33 12//32 14//34 67//35
f 67//35 14//34 16//36 85//37
f 85//37 16//36 18//38 72//39
f 72//39 18//38 20//40 90//41
f 90//41 20//40 22//42 77//43
f 77//43 22//42 24//44 95//45
f 95//45 24//44 26//46 82//47
f 82//47 26//46 28//48 69//49
f 69//49 28//48 30//50 87//51
f 87//51 30//50 32//52 74//53
f 74//53 32//52 34//54 92//55
f 33//56 103//57 122//58 35//59
f 35//59 122//58 108//60 37//61
f 37//61 108//60 127//62 39//63
f 39//63 127//62 115//64 41//65
f 41//65 115//64 100//66 43//67
f 43//67 100//66 119//68 45//69
f 45//69 119//68 105//70 47//71
f 47//71 105//70 124//72 49//73
f 49//73 124//72 110//74 51//75
f 51//75 110//74 97//76 53//77
f 53//77 97//76 116//78 55//79
f 55//79 116//78 102//80 57//81
f 57//81 102//80 121//82 59//83
f 59//83 121//82 107//84 61//85
f 63//86 126//87 113//88 1//89
f 61//85 107//84 126//87 63//86
f 1//89 3//90 5//91 7//92 9//93 11//94 13//95 15//96 17//97 19//98 21//99 23//100 25//101 27//102 29//103 31//104 33//56 35//59 37//61 39//63 41//65 43//67 45//69 47//71 49//73 51//75 53//77 55//79 57//81 59//83 61//85 63//86
f 113//88 96//22 70//25 112//105
f 109//106 67//35 85//37 128//107
f 125//108 82//47 69//49 111//109
f 66//110 38//111 40//112 84//113
f 81//114 50//115 52//116 68//117
f 123//118 80//33 67//35 109//106
f 106//119 95//45 82//47 125//108
f 79//120 36//121 38//111 66//110
f 94//122 48//123 50//115 81//114
f 78//124 60//125 62//126 65//127
f 104//128 93//31 80//33 123//118
f 120//129 77//43 95//45 106//119
f 92//55 34//54 36//121 79//120
f 76//130 46//131 48//123 94//122
f 91//132 58//133 60//125 78//124
f 118//134 75//29 93//31 104//128
f 101//135 90//41 77//43 120//129
f 117//136 74//53 92//55 103//57
f 89//137 44//138 46//131 76//130
f 73//139 56//140 58//133 91//132
f 99//141 88//27 75//29 118//134
f 114//142 72//39 90//41 101//135
f 98//143 87//51 74//53 117//136
f 71//144 42//145 44//138 89//137
f 86//146 54//147 56//140 73//139
f 65//127 62//126 64//148 83//149
f 112//105 70//25 88//27 99//141
f 128//107 85//37 72//39 114//142
f 111//109 69//49 87//51 98//143
f 84//113 40//112 42//145 71//144
f 68//117 52//116 54//147 86//146
f 83//149 64//148 2//23 96//22
f 122//58 79//120 66//110 108//60
f 105//70 94//122 81//114 124//72
f 121//82 78//124 65//127 107//84
f 13//95 109//106 128//107 15//96
f 103//57 92//55 79//120 122//58
f 119//68 76//130 94//122 105//70
f 102//80 91//132 78//124 121//82
f 1//89 113//88 112//105 3//90
f 23//100 106//119 125//108 25//101
f 100//66 89//137 76//130 119//68
f 116//78 73//139 91//132 102//80
f 11//94 123//118 109//106 13//95
f 21//99 120//129 106//119 23//100
f 31//104 117//136 103//57 33//56
f 115//64 71//144 89//137 100//66
f 97//76 86//146 73//139 116//78
f 107//84 65//127 83//149 126//87
f 9//93 104//128 123//118 11//94
f 19//98 101//135 120//129 21//99
f 29//103 98//143 117//136 31//104
f 27//102 111//109 98//143 29//103
f 127//62 84//113 71//144 115//64
f 110//74 68//117 86//146 97//76
f 126//87 83//149 96//22 113//88
f 7//92 118//134 104//128 9//93
f 17//97 114//142 101//135 19//98
f 15//96 128//107 114//142 17//97
f 108//60 66//110 84//113 127//62
f 124//72 81//114 68//117 110//74
f 25//101 125//108 111//109 27//102
f 5//91 99//141 118//134 7//92
f 3//90 112//105 99//141 5//91
